<?xml version="1.0" encoding="UTF-8"?>
<svg xmlns="http://www.w3.org/2000/svg" xmlns:xlink="http://www.w3.org/1999/xlink" width="150px" height="px" viewBox="0 0 150 150" version="1.1">
<g id="surface1">
<path style=" stroke:none;fill-rule:nonzero;fill:rgb(0%,0%,0%);fill-opacity:1;" d="M 91.113281 34.234375 C 90.277344 34.363281 89.222656 34.773438 88.332031 35.300781 C 87.570312 35.757812 85.296875 37.953125 77.066406 46.1875 L 66.753906 56.511719 L 68.085938 57.1875 L 69.40625 57.847656 L 79.277344 47.914062 C 87.992188 39.140625 89.238281 37.9375 90.058594 37.542969 C 91.800781 36.664062 93.882812 36.796875 95.433594 37.867188 C 96.546875 38.628906 112.121094 54.300781 112.472656 55.019531 C 112.910156 55.898438 113.144531 57.214844 113.027344 58.167969 C 112.808594 59.941406 112.71875 60.042969 104.925781 67.925781 C 100.972656 71.9375 96.488281 76.449219 94.980469 77.957031 L 92.242188 80.683594 L 92.796875 81.941406 C 93.105469 82.632812 93.398438 83.203125 93.441406 83.203125 C 93.5 83.203125 98.261719 78.472656 104.019531 72.683594 C 115.578125 61.113281 115.121094 61.640625 115.664062 59.222656 C 116.089844 57.320312 115.78125 55.371094 114.742188 53.421875 C 114.449219 52.851562 112.339844 50.640625 106.496094 44.78125 C 102.1875 40.445312 98.234375 36.546875 97.707031 36.121094 C 96.546875 35.171875 95.523438 34.644531 94.308594 34.351562 C 93.441406 34.144531 91.949219 34.085938 91.113281 34.234375 Z M 91.113281 34.234375 "/>
<path style=" stroke:none;fill-rule:nonzero;fill:rgb(0%,0%,0%);fill-opacity:1;" d="M 52.660156 54.066406 C 51.417969 54.242188 49.90625 54.726562 48.722656 55.328125 C 47.914062 55.738281 47.257812 56.265625 45.71875 57.773438 C 43.625 59.824219 43.214844 60.4375 43.214844 61.523438 C 43.214844 62.914062 43.214844 62.898438 53.363281 73.050781 L 62.902344 82.601562 L 55.503906 90.042969 C 51.445312 94.128906 47.679688 98.042969 47.152344 98.730469 C 45.335938 101.074219 44.386719 102.714844 44.019531 104.105469 C 43.390625 106.539062 45.175781 106.800781 48.546875 104.78125 C 50.832031 103.417969 52.441406 101.953125 59.882812 94.570312 L 67.398438 87.097656 L 77.023438 96.707031 C 87.582031 107.253906 87.203125 106.917969 88.769531 106.742188 C 89.164062 106.699219 89.679688 106.566406 89.898438 106.449219 C 90.132812 106.332031 91.144531 105.378906 92.152344 104.339844 C 93.792969 102.671875 94.085938 102.273438 94.6875 101.058594 C 95.714844 98.980469 95.992188 97.441406 95.902344 94.261719 C 95.785156 89.96875 94.730469 86.191406 92.285156 81.296875 C 89.765625 76.257812 86.867188 72.332031 82.265625 67.75 C 75.6875 61.1875 68.421875 56.6875 61.449219 54.859375 C 58.214844 53.992188 55.078125 53.714844 52.660156 54.066406 Z M 59.222656 57.203125 C 69.347656 59.296875 81.050781 68.21875 87.773438 78.925781 C 92.914062 87.113281 94.644531 95.816406 92.023438 100.339844 C 91.539062 101.160156 88.800781 104.003906 88.492188 104.003906 C 88.214844 104.003906 45.996094 61.816406 45.996094 61.539062 C 45.996094 61.273438 48.089844 59.136719 49.117188 58.375 C 51.328125 56.703125 54.859375 56.292969 59.222656 57.203125 Z M 59.222656 57.203125 "/>
</g>
</svg>
