<?xml version="1.0" encoding="UTF-8"?>
<svg xmlns="http://www.w3.org/2000/svg" xmlns:xlink="http://www.w3.org/1999/xlink" width="150px" height="px" viewBox="0 0 150 150" version="1.1">
<g id="surface1">
<path style=" stroke:none;fill-rule:nonzero;fill:rgb(0%,0%,0%);fill-opacity:1;" d="M 62.535156 31.550781 C 62.066406 31.65625 61.1875 31.976562 60.558594 32.285156 C 58.492188 33.265625 56.71875 35.523438 56.265625 37.761719 C 56.148438 38.289062 56.105469 43.199219 56.105469 53.230469 L 56.105469 67.9375 L 55.636719 68.113281 C 52.472656 69.375 48.617188 71.734375 46.539062 73.679688 C 44.984375 75.144531 44.136719 76.214844 43.273438 77.839844 C 42.289062 79.6875 42.042969 80.875 42.042969 83.699219 C 42.042969 85.003906 42.113281 86.324219 42.203125 86.644531 C 42.421875 87.421875 43.535156 88.535156 44.3125 88.753906 C 44.722656 88.871094 48.984375 88.914062 58.402344 88.914062 L 71.910156 88.914062 L 71.953125 100.296875 C 72.011719 112.835938 72.011719 112.820312 72.964844 115.808594 C 74.136719 119.488281 75.863281 119.488281 77.035156 115.808594 C 77.988281 112.820312 77.988281 112.835938 78.046875 100.296875 L 78.089844 88.914062 L 91.597656 88.914062 C 100.914062 88.914062 105.277344 88.855469 105.6875 88.753906 C 106.496094 88.535156 107.550781 87.421875 107.796875 86.527344 C 108.0625 85.605469 107.929688 81.269531 107.609375 80.125 C 107.285156 78.96875 106.332031 77.125 105.5 76.023438 C 104.371094 74.546875 102.246094 72.613281 100.3125 71.335938 C 98.671875 70.253906 95.742188 68.714844 94.453125 68.246094 L 93.898438 68.054688 L 93.898438 53.289062 C 93.898438 43.210938 93.851562 38.289062 93.734375 37.761719 C 93.28125 35.523438 91.507812 33.265625 89.445312 32.285156 C 87.464844 31.347656 87.699219 31.363281 74.925781 31.363281 C 66.300781 31.375 63.148438 31.421875 62.535156 31.550781 Z M 62.535156 31.550781 "/>
</g>
</svg>
